<mxfile>
    <diagram id="y2ovvgNVkk9PCa09nPV3" name="Page-1">
        <mxGraphModel dx="820" dy="475" grid="1" gridSize="10" guides="1" tooltips="1" connect="1" arrows="1" fold="1" page="1" pageScale="1" pageWidth="827" pageHeight="1169" math="0" shadow="0">
            <root>
                <mxCell id="0"/>
                <mxCell id="1" parent="0"/>
                <mxCell id="23" style="edgeStyle=orthogonalEdgeStyle;rounded=0;orthogonalLoop=1;jettySize=auto;html=1;entryX=0;entryY=0;entryDx=0;entryDy=65;entryPerimeter=0;" parent="1" source="8" target="20" edge="1">
                    <mxGeometry relative="1" as="geometry"/>
                </mxCell>
                <mxCell id="8" value="load" style="shape=folder;fontStyle=1;tabWidth=110;tabHeight=30;tabPosition=left;html=1;boundedLbl=1;labelInHeader=1;container=1;collapsible=0;recursiveResize=0;" parent="1" vertex="1">
                    <mxGeometry x="170" y="60" width="150" height="100" as="geometry"/>
                </mxCell>
                <mxCell id="10" value="generator" style="shape=folder;fontStyle=1;tabWidth=110;tabHeight=30;tabPosition=left;html=1;boundedLbl=1;labelInHeader=1;container=1;collapsible=0;recursiveResize=0;" parent="1" vertex="1">
                    <mxGeometry x="170" y="520" width="150" height="100" as="geometry"/>
                </mxCell>
                <mxCell id="12" value="discriminator&amp;nbsp;" style="shape=folder;fontStyle=1;tabWidth=110;tabHeight=30;tabPosition=left;html=1;boundedLbl=1;labelInHeader=1;container=1;collapsible=0;recursiveResize=0;" parent="1" vertex="1">
                    <mxGeometry x="170" y="350" width="150" height="100" as="geometry"/>
                </mxCell>
                <mxCell id="25" style="edgeStyle=orthogonalEdgeStyle;rounded=0;orthogonalLoop=1;jettySize=auto;html=1;entryX=0;entryY=0;entryDx=0;entryDy=82.5;entryPerimeter=0;" parent="12" target="20" edge="1">
                    <mxGeometry relative="1" as="geometry">
                        <mxPoint x="150" y="65" as="sourcePoint"/>
                    </mxGeometry>
                </mxCell>
                <mxCell id="24" style="edgeStyle=orthogonalEdgeStyle;rounded=0;orthogonalLoop=1;jettySize=auto;html=1;entryX=0;entryY=0;entryDx=0;entryDy=65;entryPerimeter=0;" parent="1" source="14" target="20" edge="1">
                    <mxGeometry relative="1" as="geometry">
                        <Array as="points">
                            <mxPoint x="420" y="250"/>
                            <mxPoint x="420" y="305"/>
                        </Array>
                    </mxGeometry>
                </mxCell>
                <mxCell id="14" value="train&amp;nbsp;" style="shape=folder;fontStyle=1;tabWidth=110;tabHeight=30;tabPosition=left;html=1;boundedLbl=1;labelInHeader=1;container=1;collapsible=0;recursiveResize=0;" parent="1" vertex="1">
                    <mxGeometry x="160" y="200" width="150" height="100" as="geometry"/>
                </mxCell>
                <mxCell id="27" style="edgeStyle=orthogonalEdgeStyle;rounded=0;orthogonalLoop=1;jettySize=auto;html=1;entryX=0;entryY=0;entryDx=150;entryDy=65;entryPerimeter=0;" parent="1" source="17" target="20" edge="1">
                    <mxGeometry relative="1" as="geometry"/>
                </mxCell>
                <mxCell id="17" value="test" style="shape=folder;fontStyle=1;tabWidth=110;tabHeight=30;tabPosition=left;html=1;boundedLbl=1;labelInHeader=1;container=1;collapsible=0;recursiveResize=0;" parent="1" vertex="1">
                    <mxGeometry x="660" y="470" width="150" height="100" as="geometry"/>
                </mxCell>
                <mxCell id="20" value="main" style="shape=folder;fontStyle=1;tabWidth=110;tabHeight=30;tabPosition=left;html=1;boundedLbl=1;labelInHeader=1;container=1;collapsible=0;recursiveResize=0;" parent="1" vertex="1">
                    <mxGeometry x="520" y="240" width="150" height="100" as="geometry"/>
                </mxCell>
                <mxCell id="21" value="main class" style="html=1;" parent="20" vertex="1">
                    <mxGeometry width="110" height="30" relative="1" as="geometry">
                        <mxPoint x="20" y="50" as="offset"/>
                    </mxGeometry>
                </mxCell>
                <mxCell id="34" style="edgeStyle=orthogonalEdgeStyle;rounded=0;orthogonalLoop=1;jettySize=auto;html=1;" parent="1" source="31" target="20" edge="1">
                    <mxGeometry relative="1" as="geometry"/>
                </mxCell>
                <mxCell id="31" value="loss" style="shape=folder;fontStyle=1;tabWidth=110;tabHeight=30;tabPosition=left;html=1;boundedLbl=1;labelInHeader=1;container=1;collapsible=0;recursiveResize=0;" parent="1" vertex="1">
                    <mxGeometry x="170" y="670" width="150" height="100" as="geometry"/>
                </mxCell>
                <mxCell id="26" style="edgeStyle=orthogonalEdgeStyle;rounded=0;orthogonalLoop=1;jettySize=auto;html=1;entryX=0;entryY=0;entryDx=0;entryDy=100;entryPerimeter=0;exitX=0;exitY=0;exitDx=150;exitDy=82.5;exitPerimeter=0;" parent="1" source="10" target="20" edge="1">
                    <mxGeometry relative="1" as="geometry">
                        <mxPoint x="420" y="585" as="sourcePoint"/>
                        <Array as="points">
                            <mxPoint x="320" y="585"/>
                            <mxPoint x="410" y="585"/>
                            <mxPoint x="410" y="340"/>
                        </Array>
                    </mxGeometry>
                </mxCell>
            </root>
        </mxGraphModel>
    </diagram>
</mxfile>